<?xml version="1.0" encoding="UTF-8" standalone="no"?>
<svg
   xmlns:dc="http://purl.org/dc/elements/1.1/"
   xmlns:cc="http://creativecommons.org/ns#"
   xmlns:rdf="http://www.w3.org/1999/02/22-rdf-syntax-ns#"
   xmlns:svg="http://www.w3.org/2000/svg"
   xmlns="http://www.w3.org/2000/svg"
   xmlns:sodipodi="http://sodipodi.sourceforge.net/DTD/sodipodi-0.dtd"
   xmlns:inkscape="http://www.inkscape.org/namespaces/inkscape"
   inkscape:export-ydpi="96"
   inkscape:export-xdpi="96"
   inkscape:export-filename="/Users/rawbin/Documents/Projets/medialab/kaa/assets/icon.png"
   inkscape:version="1.0beta1 (32d4812, 2019-09-19)"
   sodipodi:docname="icon.svg"
   xml:space="preserve"
   enable-background="new 0 0 603.681 603.68"
   viewBox="0 0 603.681 603.68"
   height="603.68px"
   width="603.681px"
   y="0px"
   x="0px"
   id="Calque_1"
   version="1.1"><metadata
   id="metadata25">
  <rdf:RDF>
    <cc:Work
       rdf:about="">
      <dc:format>image/svg+xml</dc:format>
      <dc:type
         rdf:resource="http://purl.org/dc/dcmitype/StillImage" />
    </cc:Work>
  </rdf:RDF>
</metadata>
<defs
   id="defs23" />
<sodipodi:namedview
   inkscape:current-layer="Calque_1"
   inkscape:window-maximized="0"
   inkscape:window-y="23"
   inkscape:window-x="0"
   inkscape:cy="560"
   inkscape:cx="-252.85714"
   inkscape:zoom="0.35"
   showgrid="false"
   id="namedview21"
   inkscape:window-height="907"
   inkscape:window-width="1600"
   inkscape:pageshadow="2"
   inkscape:pageopacity="0"
   guidetolerance="10"
   gridtolerance="10"
   objecttolerance="10"
   borderopacity="1"
   inkscape:document-rotation="0"
   bordercolor="#666666"
   pagecolor="#ffffff" />


<path
   id="path12"
   d="M119.687,115.25l173.257,173.257L280.05,395.685c0,0-33.442-0.402-70.915-37.875  C83.214,231.889,119.687,115.25,119.687,115.25z"
   fill="#FFFFFF" />

<path
   id="path14"
   d="M279.778,415.133c0,0-13.158,1.953-40.432-11.904c-12.192-6.193-30.077-22.354-30.077-22.354  s-8.18,15.915-22.27,47.408c-14.089,31.493,23.228,114.076,49.406,68.8C262.583,451.808,279.778,415.133,279.778,415.133z"
   fill="#FFFFFF" />

<path
   id="path16"
   d="M483.051,115.25L309.793,288.507l12.894,107.178c0,0,33.443-0.402,70.915-37.875  C519.523,231.889,483.051,115.25,483.051,115.25z"
   fill="#FFFFFF" />

<path
   id="path18"
   d="M322.959,415.133c0,0,13.158,1.953,40.433-11.904c12.191-6.193,30.076-22.354,30.076-22.354  s8.18,15.915,22.27,47.408s-23.229,114.076-49.405,68.8C340.154,451.808,322.959,415.133,322.959,415.133z"
   fill="#FFFFFF" />

<ellipse
   ry="265.71429"
   rx="260"
   cy="305.71429"
   cx="300"
   id="path27" />
</svg>
